<svg width="456" height="228" viewBox="0 0 456 228" fill="none" xmlns="http://www.w3.org/2000/svg">
<path d="M8.5 84.6006H23.7L30.4 149.301C31.2 157.601 32.2 165.701 32.8 182.501H33.2C33.8 165.701 34.8 157.601 35.6 149.301L42.3 84.6006H57.5L40 216.301H26L8.5 84.6006Z" fill="#3E2768"/>
<path d="M152.9 98.2006H122.8V143.601H145.3V157.201H122.8V202.601H152.9V216.201H122.8C114.5 216.201 107.8 210.101 107.8 202.601V98.2006C107.8 90.6006 114.5 84.6006 122.8 84.6006H152.9V98.2006Z" fill="#3E2768"/>
<path d="M203.5 84.6006H233.6C241.9 84.6006 248.6 90.7006 248.6 98.2006V139.901C248.6 146.201 245.6 148.601 241.9 150.401C245.6 151.701 248.6 154.501 248.6 162.601V206.501C248.6 210.201 250.2 213.001 252.3 216.301H236.9C235.3 213.501 233.7 209.801 233.7 206.501V157.301H218.7V216.301H203.7V84.6006H203.5ZM218.5 143.601H233.5V98.2006H218.5V143.601Z" fill="#3E2768"/>
<path d="M301.1 103.9C301.1 92.6004 311.3 83.4004 323.6 83.4004C335.9 83.4004 346.1 92.6004 346.1 103.9V196.9C346.1 208.2 335.9 217.4 323.6 217.4C311.3 217.4 301.1 208.2 301.1 196.9V103.9ZM331.1 98.2004H316.1V202.6H331.1V98.2004Z" fill="#3E2768"/>
<path d="M398.7 103.9C398.7 92.6004 408.9 83.4004 421.2 83.4004C433.5 83.4004 443.7 92.6004 443.7 103.9V196.9C443.7 208.2 433.5 217.4 421.2 217.4C408.9 217.4 398.7 208.2 398.7 196.9V103.9ZM428.7 98.2004H413.7V202.6H428.7V98.2004Z" fill="#3E2768"/>
<path d="M151.2 26.0002H147V22.2002H159.6V26.0002H155.4V59.0002H151.2V26.0002V26.0002Z" fill="#3E2768"/>
<path d="M219 22.2002H223.2V38.7002H227.4V22.2002H231.6V59.0002H227.4V42.5002H223.2V59.0002H219V22.2002Z" fill="#3E2768"/>
<path d="M305.3 26.0002H296.9V38.7002H303.2V42.5002H296.9V55.2002H305.3V59.0002H296.9C294.6 59.0002 292.7 57.3002 292.7 55.2002V26.0002C292.7 23.9002 294.6 22.2002 296.9 22.2002H305.3V26.0002Z" fill="#3E2768"/>
</svg>
